<?xml version="1.0" standalone="no"?>
<!DOCTYPE svg PUBLIC "-//W3C//DTD SVG 20010904//EN"
 "http://www.w3.org/TR/2001/REC-SVG-20010904/DTD/svg10.dtd">
<svg version="1.0" xmlns="http://www.w3.org/2000/svg"
 width="50.000000pt" height="50.000000pt" viewBox="0 0 50.000000 50.000000"
 preserveAspectRatio="xMidYMid meet">

<g transform="translate(0.000000,50.000000) scale(0.100000,-0.100000)"
fill="#000000" stroke="none">
<path d="M167 486 c-173 -62 -222 -284 -91 -412 189 -183 492 7 409 256 -43
128 -191 201 -318 156z m189 -24 c68 -35 124 -113 124 -172 0 -17 -6 -20 -44
-20 -25 0 -46 5 -48 12 -2 6 -24 14 -49 17 -43 6 -44 7 -49 46 -5 38 -7 40
-40 40 -33 0 -35 -2 -40 -40 -5 -39 -6 -40 -49 -46 -25 -3 -47 -11 -49 -17 -2
-7 -23 -12 -48 -12 -51 0 -55 13 -28 78 50 121 202 175 320 114z m-76 -132 l0
-50 50 0 c49 0 50 -1 50 -30 0 -29 -1 -30 -50 -30 l-50 0 0 -50 c0 -49 -1 -50
-30 -50 -29 0 -30 1 -30 50 l0 50 -50 0 c-49 0 -50 1 -50 30 0 29 1 30 50 30
l50 0 0 50 c0 49 1 50 30 50 29 0 30 -1 30 -50z"/>
</g>
</svg>
