<svg id="Layer_1" enable-background="new 0 0 512 512" viewBox="0 0 512 512" xmlns="http://www.w3.org/2000/svg" xmlns:xlink="http://www.w3.org/1999/xlink"><linearGradient id="SVGID_1_" gradientUnits="userSpaceOnUse" x1="66.265" x2="429.773" y1="415.416" y2="51.908"><stop offset="0" stop-color="#fc4422"/><stop offset="1" stop-color="#ffbb32"/></linearGradient><path d="m328.259 286.672-72.322 15.85c-.738.162-1.496.243-2.251.243-2.785 0-5.452-1.115-7.422-3.084-2.528-2.526-3.599-6.176-2.834-9.667l15.851-72.321c.431-1.967 1.406-3.76 2.83-5.184l119.307-119.298-1.663-1.404c-15.204-12.837-34.47-20.003-54.387-20.003h-199.372c-46.605 0-84.509 37.919-84.509 84.522v199.359c0 46.603 37.906 84.51 84.509 84.51h199.373c46.596 0 84.505-37.914 84.505-84.51v-148.287l-76.44 76.444c-1.418 1.418-3.217 2.401-5.175 2.83zm8.569 49.404c0 5.802-4.699 10.499-10.501 10.499h-201.297c-5.797 0-10.501-4.702-10.501-10.499 0-5.803 4.699-10.5 10.501-10.5h201.297c5.807 0 10.501 4.692 10.501 10.5zm125.078-210.415-141.149 141.152-53.302 11.684 11.686-53.312 141.143-141.143c11.48-11.48 30.14-11.477 41.622 0 11.478 11.473 11.475 30.143 0 41.619z" fill="url(#SVGID_1_)"/></svg>