<?xml version="1.0" standalone="no"?>
<!DOCTYPE svg PUBLIC "-//W3C//DTD SVG 20010904//EN"
 "http://www.w3.org/TR/2001/REC-SVG-20010904/DTD/svg10.dtd">
<svg version="1.0" xmlns="http://www.w3.org/2000/svg"
 width="133.000000pt" height="124.000000pt" viewBox="0 0 133.000000 124.000000"
 preserveAspectRatio="xMidYMid meet">

<g transform="translate(0.000000,124.000000) scale(0.100000,-0.100000)"
fill="#000000" stroke="none">
<path d="M367 993 c-4 -3 -7 -17 -7 -30 0 -14 -7 -32 -16 -41 -16 -16 -16 -29
2 -157 4 -31 -1 -51 -22 -90 -14 -27 -35 -67 -47 -88 -13 -25 -19 -56 -19 -93
0 -58 -8 -67 -32 -32 -21 30 -20 87 4 177 16 61 18 78 7 100 -16 34 -58 48
-92 33 -22 -10 -26 -17 -23 -49 2 -27 8 -39 21 -41 15 -3 18 2 15 25 -2 22 1
29 18 31 32 5 36 -21 14 -101 -35 -124 -21 -203 37 -224 77 -28 106 -33 186
-33 85 0 107 8 90 33 -4 7 -1 5 9 -5 20 -22 44 -23 52 -2 9 23 8 24 -19 34
-24 9 -25 12 -25 105 0 83 -2 95 -17 95 -10 0 18 25 61 55 44 30 87 62 96 70
17 15 25 11 110 -52 51 -37 87 -69 81 -71 -7 -2 -11 -38 -11 -98 0 -92 -1 -95
-26 -104 -16 -7 -24 -16 -22 -28 4 -20 48 -30 48 -10 0 8 4 6 11 -4 8 -15 25
-18 96 -18 80 0 109 5 186 33 58 21 72 100 37 224 -11 40 -17 79 -14 88 8 19
50 16 47 -3 -2 -6 -4 -18 -5 -24 -2 -7 6 -13 17 -13 15 0 21 8 23 31 8 79 -94
88 -121 12 -3 -10 3 -50 13 -90 11 -40 20 -91 20 -113 0 -39 -22 -85 -39 -85
-5 0 -11 30 -13 68 -4 56 -11 77 -44 132 -42 69 -45 94 -29 206 4 30 3 59 -2
69 -8 14 -11 10 -17 -24 -4 -28 -14 -46 -31 -57 -24 -16 -27 -15 -45 1 -11 10
-20 25 -19 34 0 10 3 8 9 -6 11 -26 42 -30 60 -8 6 8 14 32 17 54 5 33 2 41
-16 51 -26 13 -74 5 -92 -16 -7 -8 -29 -14 -55 -14 -40 0 -44 -2 -44 -24 0
-28 51 -75 83 -77 17 -1 18 -2 4 -6 -9 -2 -15 -8 -12 -13 3 -5 -1 -25 -9 -45
l-16 -36 -40 32 c-22 18 -40 36 -40 39 0 4 -14 13 -31 20 -26 11 -32 11 -40
-1 -8 -12 -10 -12 -18 0 -10 16 -43 7 -69 -17 -9 -9 -32 -30 -49 -46 l-33 -29
-15 37 c-14 33 -14 40 -1 64 8 15 20 37 27 49 16 29 5 53 -24 53 -13 0 -27 4
-33 10 -5 5 -20 11 -32 13 -12 2 -29 13 -38 25 -16 23 -26 27 -37 15z m93
-556 c11 -5 9 -6 -4 -4 -11 1 -21 9 -23 17 -3 10 -2 11 4 4 4 -6 15 -14 23
-17z m465 4 c-3 -6 -14 -10 -23 -10 -15 1 -15 2 1 6 9 2 17 9 17 15 0 6 3 9 6
5 3 -3 3 -10 -1 -16z"/>
<path d="M637 582 c-12 -13 -17 -37 -17 -75 l0 -57 60 0 60 0 0 59 c0 51 -3
62 -22 75 -30 21 -61 20 -81 -2z"/>
</g>
</svg>
