<?xml version="1.0" standalone="no"?>
<!DOCTYPE svg PUBLIC "-//W3C//DTD SVG 20010904//EN"
 "http://www.w3.org/TR/2001/REC-SVG-20010904/DTD/svg10.dtd">
<svg version="1.0" xmlns="http://www.w3.org/2000/svg"
 width="234.000000pt" height="69.000000pt" viewBox="0 0 234.000000 69.000000"
 preserveAspectRatio="xMidYMid meet">

<g transform="translate(0.000000,69.000000) scale(0.100000,-0.100000)"
fill="#000000" stroke="none">
<path d="M68 561 c-27 -4 -53 -12 -59 -18 -14 -14 -3 -51 16 -55 12 -2 16 -31
19 -135 2 -87 8 -138 16 -148 29 -35 130 -2 115 38 -4 9 -16 17 -26 17 -12 0
-19 7 -19 20 0 17 7 20 46 20 40 0 51 5 80 35 19 21 40 58 49 88 37 124 -35
166 -237 138z m140 -132 c-3 -28 -12 -55 -19 -60 -16 -10 -50 -8 -49 4 0 4 0
30 0 57 l0 50 36 0 37 0 -5 -51z"/>
<path d="M1082 555 c-61 -27 -78 -119 -33 -176 10 -13 44 -37 75 -54 92 -49
68 -86 -34 -50 -50 18 -60 13 -60 -25 0 -38 40 -60 110 -60 61 0 102 19 118
55 28 61 4 110 -78 159 -54 32 -72 58 -52 78 17 17 50 -1 61 -32 11 -33 40
-40 61 -15 7 8 15 35 18 60 4 44 4 45 -31 60 -45 19 -112 19 -155 0z"/>
<path d="M650 511 c-5 -11 -10 -26 -10 -34 0 -8 -9 -17 -20 -20 -24 -6 -27
-45 -5 -53 12 -5 15 -24 15 -85 0 -103 12 -129 59 -129 39 0 101 32 101 52 0
29 -17 40 -49 33 -29 -6 -31 -5 -27 17 3 12 8 40 11 60 5 29 11 39 30 44 20 5
25 12 25 40 0 30 -3 34 -25 34 -21 0 -25 5 -25 30 0 28 -3 30 -35 30 -24 0
-37 -6 -45 -19z"/>
<path d="M1336 514 c-3 -9 -6 -24 -6 -34 0 -10 -9 -20 -20 -23 -24 -6 -27 -45
-5 -53 12 -5 15 -24 15 -84 0 -108 10 -130 56 -130 39 0 104 34 104 53 -1 28
-18 40 -49 34 l-32 -7 6 38 c12 72 15 79 40 90 22 10 26 18 23 45 -2 27 -7 31
-25 29 -20 -3 -23 1 -23 27 0 29 -2 31 -39 31 -26 0 -41 -5 -45 -16z"/>
<path d="M1586 488 c-19 -27 -21 -79 -4 -96 32 -32 68 -1 68 60 0 57 -36 76
-64 36z"/>
<path d="M1676 494 c-18 -48 3 -114 38 -114 36 0 49 67 20 108 -18 26 -49 29
-58 6z"/>
<path d="M403 466 c-80 -36 -93 -191 -21 -251 46 -39 127 -34 179 12 24 20 13
56 -15 50 -12 -3 -35 -8 -52 -12 -22 -5 -35 -2 -47 10 -28 27 -20 35 36 35 43
0 58 5 75 23 29 31 28 78 -1 113 -28 33 -104 43 -154 20z m71 -72 c28 -11 18
-34 -14 -34 -32 0 -37 9 -18 28 14 14 12 14 32 6z"/>
<path d="M1841 469 c-19 -8 -22 -14 -16 -36 3 -16 11 -31 16 -34 6 -3 11 -47
12 -98 2 -101 8 -111 63 -111 43 0 79 29 70 58 -6 17 -13 21 -32 16 -28 -7
-29 -3 -8 39 25 50 45 67 76 67 27 0 28 2 28 49 0 35 -4 51 -16 55 -42 16 -61
1 -85 -65 l-19 -54 5 46 c9 70 -27 95 -94 68z"/>
<path d="M2143 466 c-81 -37 -95 -189 -22 -250 48 -41 147 -32 187 17 9 10 9
18 -1 31 -12 16 -18 17 -54 6 -44 -14 -83 -2 -83 25 0 11 13 15 53 15 44 0 58
4 77 25 18 20 22 31 17 62 -4 20 -15 45 -25 55 -25 25 -107 33 -149 14z m71
-72 c28 -11 18 -34 -14 -34 -32 0 -37 9 -18 28 14 14 12 14 32 6z"/>
<path d="M1511 382 c-21 -51 19 -111 54 -82 19 16 19 60 -1 88 -21 30 -39 28
-53 -6z"/>
<path d="M1755 386 c-21 -32 -16 -90 8 -94 28 -6 47 17 47 57 0 35 -14 61 -32
61 -4 0 -15 -11 -23 -24z"/>
<path d="M1597 304 c-47 -50 -51 -76 -15 -95 13 -7 29 -7 48 0 19 6 41 6 61 1
35 -10 63 0 73 27 8 20 -78 113 -105 113 -10 0 -37 -21 -62 -46z"/>
</g>
</svg>
