<svg id="Layer_1" enable-background="new 0 0 48 48" height="512" viewBox="0 0 48 48" width="512" xmlns="http://www.w3.org/2000/svg"><path d="m40.6 36.3-5.1-4.9c-1.1-1-2.6-1.2-3.9-.6l-2.4-2.3c4.5-4.7 5-12.2.9-17.5-4.6-5.8-13-6.7-18.7-2.2-5.8 4.6-6.7 13-2.2 18.7 2.2 2.8 5.4 4.6 8.9 5s6.9-.5 9.6-2.7l2.4 2.4c-.7 1.3-.5 2.9.6 3.9l5.1 4.9c.9.9 2.2 1 2.3 1 .9 0 1.8-.4 2.4-1s1-1.5 1-2.4c.1-.9-.3-1.7-.9-2.3zm-29.7-9.9c-4.5-5.7-2.5-12.6 1.8-16 4.8-3.8 12-3 15.9 1.9s2.9 11.9-1.9 15.9c-4 3.4-11.8 3.2-15.8-1.8zm28.3 13.2c-.3.3-1.1.7-1.9 0l-5.1-4.9c-.5-.5-.5-1.4 0-1.9.3-.3.6-.4 1-.4.3 0 .7.1.9.4l5.1 4.9c.8.8.3 1.7 0 1.9zm-11.5-19.4c-.1.5-.5.9-1 .9h-.1c-.6-.1-1-.6-.9-1.1.2-1.6-.3-3.2-1.3-4.4-1-1.3-2.4-2.1-4-2.2-.5-.1-.9-.6-.9-1.1.1-.5.6-.9 1.1-.9 2.1.2 4 1.3 5.4 3 1.3 1.6 1.9 3.7 1.7 5.8z"/></svg>