<svg fill="none" height="24" viewBox="0 0 24 24" width="24" xmlns="http://www.w3.org/2000/svg" xmlns:xlink="http://www.w3.org/1999/xlink"><linearGradient id="paint0_linear_1_2626" gradientUnits="userSpaceOnUse" x1="12.25" x2="12.25" y1="1.75" y2="22.25"><stop offset="0" stop-color="#f12811"/><stop offset="1" stop-color="#f5ad19"/></linearGradient><g fill="url(#paint0_linear_1_2626)"><path d="m7.46967 1.96967c.29289-.29289.76777-.29289 1.06066 0l4.49997 4.5c.2929.29289.2929.76777 0 1.06066s-.7677.29289-1.0606 0l-3.9697-3.96967-3.96967 3.96967c-.29289.29289-.76777.29289-1.06066 0s-.29289-.76777 0-1.06066z"/><path d="m7.99585 1.75c.41421 0 .75.33579.75.75v13c0 .4142-.33579.75-.75.75s-.75-.3358-.75-.75v-13c0-.41421.33579-.75.75-.75z"/><path d="m11.4697 16.4697c.2929-.2929.7677-.2929 1.0606 0l3.9697 3.9696 3.9697-3.9696c.2929-.2929.7677-.2929 1.0606 0s.2929.7677 0 1.0606l-4.5 4.5c-.2929.2929-.7677.2929-1.0606 0l-4.5-4.5c-.2929-.2929-.2929-.7677 0-1.0606z"/><path d="m16.4958 7.75c.4143 0 .75.33579.75.75v13c0 .4142-.3357.75-.75.75-.4142 0-.75-.3358-.75-.75v-13c0-.41421.3358-.75.75-.75z"/></g></svg>