<svg id="Layer_1" viewBox="0 0 512 512" xmlns="http://www.w3.org/2000/svg" data-name="Layer 1"><g fill-rule="evenodd"><path d="m198.666 459.284v22.925a13.374 13.374 0 0 1 -13.351 13.351h-132.191a13.374 13.374 0 0 1 -13.35-13.351v-22.925h-14.437a6.377 6.377 0 0 1 -6.376-6.377v-322.588a6.376 6.376 0 0 1 3.728-5.8l185.731-107.234a6.346 6.346 0 0 1 6.415.051l186.158 107.478a6.345 6.345 0 0 1 3.187 5.5h.027v111.853l11.041-3.1a10.509 10.509 0 0 1 12.934 7.283c14.451 53.864 30.206 107.746 45.323 161.487a15.582 15.582 0 0 1 8.16 30.076l-90.153 25.3a35.976 35.976 0 0 1 -70.429 6.073l-.249-.888v-.049a35.942 35.942 0 0 1 -1.1-9.068z"/><path d="m400.379 346.152-12.141 3.408 4.362 15.54 1.3-2.258h.007a6.354 6.354 0 0 1 8.537-2.4l2.3 1.252z" fill="#f0d0af"/><path d="m364.78 265.981 4.362 15.542 1.306-2.258h.007a6.353 6.353 0 0 1 8.536-2.395l2.3 1.252-4.365-15.553z" fill="#f0d0af"/><path d="m367.091 438.842a23.182 23.182 0 0 0 -17.667-2.119h-.011a23.277 23.277 0 0 0 -16.29 16.873q-.052.289-.132.57a23.132 23.132 0 0 0 .337 11.213v.011a23.243 23.243 0 1 0 33.76-26.552zm-5.009 20.306a6.377 6.377 0 1 1 -12.753 0v-.1a6.377 6.377 0 1 1 12.753 0z" fill="#999"/><path d="m390.459 449.821 87.759-24.631a2.854 2.854 0 0 0 -1.544-5.5l-88.122 24.733a36.216 36.216 0 0 1 1.786 4.954c.041.151.082.298.121.444z" fill="#e6e6e6"/><path d="m348.274 423.906-45.983-163.835a2.782 2.782 0 0 0 -.665-1.177 2.954 2.954 0 0 0 -1.189-.752v-.008c-.184-.063-.368-.135-.55-.216l-45.218-20.159a2.863 2.863 0 0 0 -2.191-.028 2.825 2.825 0 0 0 -1.587 1.481 2.859 2.859 0 0 0 -.029 2.191 2.828 2.828 0 0 0 1.481 1.587l41.795 18.633a6.355 6.355 0 0 1 3.843 4.222l44.819 159.679q1.554-.6 3.187-1.055l.888-.25h.049q.676-.17 1.35-.313z" fill="#e6e6e6"/><g fill="#deb285"><path d="m344.1 361.946 17.3 61.628a36.082 36.082 0 0 1 19.45 9.8l80.39-22.562-21.265-75.769-27.343 7.675 8.442 30.077a6.363 6.363 0 0 1 -9.488 7.123l-9.772-5.331-5.758 9.962a6.361 6.361 0 0 1 -11.629-1.47l-8.443-30.079z"/><path d="m320.646 278.367 20.019 71.325 37.972-10.658.036-.01.036-.01 57.827-16.23-20.018-71.324-16.571 4.651a6.315 6.315 0 0 1 -.811.227l-9.96 2.8 8.442 30.077a6.364 6.364 0 0 1 -9.489 7.122l-9.771-5.337-5.759 9.962a6.361 6.361 0 0 1 -11.629-1.471l-8.441-30.075z"/></g></g><path d="m72.994 182.505h277.159v10.134h-277.159z" fill="#689ff2"/><g fill-rule="evenodd"><path d="m72.994 336.2h112.311a13.374 13.374 0 0 1 13.351 13.351v96.511h123.52a36.108 36.108 0 0 1 9.35-13.6l-44.993-160.313-39.369-17.549a15.574 15.574 0 1 1 12.688-28.446l44.873 20.006a15.685 15.685 0 0 1 6.117 3.969 15.464 15.464 0 0 1 3.7 6.506l2.661 9.48 32.947-9.247v-51.475h-277.156z" fill="#fff"/><path d="m53.115 336.2h7.126v-160.072a6.377 6.377 0 0 1 6.377-6.376h289.912a6.377 6.377 0 0 1 6.377 6.376v77.159l16.663-4.677.04-.012.042-.011 11.792-3.309v-111.778l-179.87-103.848-179.874 103.848v312.562h8.06v-96.511a13.374 13.374 0 0 1 13.355-13.351zm158.459-241.15a29.731 29.731 0 1 1 -21.022 8.708 29.638 29.638 0 0 1 21.022-8.708z" fill="#689ff2"/><path d="m108.378 348.953v24.165l5.85-7.073a6.373 6.373 0 0 1 9.889-.091l5.924 7.164v-24.165z" fill="#f0d0af"/><path d="m142.794 348.953v41.869a6.377 6.377 0 0 1 -11.49 3.81l-12.094-14.625-12.3 14.874a6.369 6.369 0 0 1 -11.276-4.06h-.008v-41.868h-42.511a.619.619 0 0 0 -.6.6v132.19a.617.617 0 0 0 .6.6h132.19a.615.615 0 0 0 .6-.6v-132.192a.617.617 0 0 0 -.6-.6zm-68.275 110.487a6.377 6.377 0 1 1 0-12.753h27.681a6.377 6.377 0 1 1 0 12.753z" fill="#deb285"/><path d="m223.579 112.775a16.978 16.978 0 1 0 4.972 12 16.923 16.923 0 0 0 -4.972-12z" fill="#fff"/></g></svg>